<?xml version="1.0" standalone="no"?>
<!DOCTYPE svg PUBLIC "-//W3C//DTD SVG 20010904//EN"
 "http://www.w3.org/TR/2001/REC-SVG-20010904/DTD/svg10.dtd">
<svg version="1.0" xmlns="http://www.w3.org/2000/svg"
 width="700.000000pt" height="700.000000pt" viewBox="0 0 700.000000 700.000000"
 preserveAspectRatio="xMidYMid meet">
<metadata>
Created by potrace 1.11, written by Peter Selinger 2001-2013
</metadata>
<g transform="translate(0.000000,700.000000) scale(0.100000,-0.100000)"
fill="#000000" stroke="none">
<path d="M685 6983 c-311 -66 -564 -307 -661 -628 -18 -57 -19 -186 -22 -2815
-2 -1970 0 -2773 8 -2820 59 -347 336 -631 686 -705 104 -22 5504 -22 5608 0
314 67 557 288 663 605 l28 85 0 2795 0 2795 -29 85 c-82 247 -231 422 -450
529 -193 95 144 85 -2991 88 -2428 1 -2779 0 -2840 -14z m1065 -3048 l0 -1315
440 0 440 0 0 1315 0 1315 1745 0 1745 0 0 -435 0 -435 -435 0 -435 0 0 -1315
0 -1315 -435 0 -435 0 0 1315 0 1315 -440 0 -440 0 0 -1315 0 -1315 -1092 0
-1093 0 -217 217 -218 218 0 1532 0 1533 435 0 435 0 0 -1315z"/>
</g>
</svg>
